# xmcd
#
# Track frame offsets:
#	180
#	22953
#	52897
#	70825
#	109489
#	136732
#	160068
#	188304
#	210753
#	234182
#
# Disc length: 3475 seconds
#
# Revision: 1
# Processed by: cddbd v1.5.1PL0 Copyright (c) Steve Scherf et al.
# Submitted via: audiograbber 1.83.01
#
DISCID=6e0d910a
DTITLE=Ferenczi György és a Herfli Davidson - I feel good
DYEAR=1900
DGENRE=Blues
TTITLE0=Same Old Blues
TTITLE1=Mustang Sally
TTITLE2=I Feel Good
TTITLE3=Éjfél Után
TTITLE4=Tom-Tom Funky
TTITLE5=Hiába Hívtalak
TTITLE6=Send Me Someone
TTITLE7=Talk to
TTITLE8=See My Truck
TTITLE9=Every Day
EXTD=
EXTT0=
EXTT1=
EXTT2=
EXTT3=
EXTT4=
EXTT5=
EXTT6=
EXTT7=
EXTT8=
EXTT9=
PLAYORDER=
